<svg id="Layer_1" data-name="Layer 1" xmlns="http://www.w3.org/2000/svg" xmlns:xlink="http://www.w3.org/1999/xlink" width="150" height="150" viewBox="0 0 150 150"><defs><style>.cls-1{fill:none;}.cls-2{clip-path:url(#clip-path);}.cls-3{fill:#037eda;}</style><clipPath id="clip-path"><rect class="cls-1" x="5.5" y="17.6" width="140.5" height="95.48"/></clipPath></defs><title>portfolio icons</title><g class="cls-2"><path class="cls-3" d="M12.3,46.1v58.6a1.7,1.7,0,0,0,1.7,1.7H137.6a1.7,1.7,0,0,0,1.7-1.7V46.1c-23.5,8.7-58.6,21.5-62,21.5s-43.9-14-65-21.6m125.3,67H13.9a8.4,8.4,0,0,1-8.4-8.4V36.5L10,38.1c23.6,8.5,62.3,22,67.2,22.8,4.6-.9,41.6-14.4,64.2-22.8l4.5-1.7v68.2a8.4,8.4,0,0,1-8.4,8.4"/><path class="cls-3" d="M12.7,24.8,8,20.1a8.3,8.3,0,0,1,4.2-2.3l1.4,6.6a1.8,1.8,0,0,0-.9.5"/><path class="cls-3" d="M12.3,25.7,5.7,24.3a8.3,8.3,0,0,1,1.3-3l5.6,3.8a1.7,1.7,0,0,0-.2.6"/><path class="cls-3" d="M12.3,38.9c23.7,8.5,60.3,21.2,65,22,4.5-.9,39.3-13.5,62-22V26a1.6,1.6,0,0,0-.1-.7,1.7,1.7,0,0,0-1.5-1H13.6a1.6,1.6,0,0,0-.8.5l-.2.2a1.8,1.8,0,0,0-.3.6,1.8,1.8,0,0,0,0,.3Zm65,28.7c-4.5,0-50.1-16.2-69.6-23.2l-2.2-.8V26a9.3,9.3,0,0,1,.2-1.7,8.5,8.5,0,0,1,1.3-3l1-1.2a8.3,8.3,0,0,1,4.3-2.3l1.7-.2H137.6a8.4,8.4,0,0,1,7.7,5.1A8.2,8.2,0,0,1,146,26V43.6l-2.2.8c-23.3,8.7-62.9,23.2-66.5,23.2"/></g></svg>