<svg id="Layer_1" data-name="Layer 1" xmlns="http://www.w3.org/2000/svg" xmlns:xlink="http://www.w3.org/1999/xlink" width="150" height="150" viewBox="0 0 150 150"><defs><style>.cls-1{fill:none;}.cls-2{clip-path:url(#clip-path);}.cls-3{fill:#db3b4f;}.cls-4{fill:#fff;}</style><clipPath id="clip-path"><rect class="cls-1" x="4" y="11.6" width="143" height="128.66"/></clipPath></defs><title>portfolio icons</title><g class="cls-2"><path class="cls-3" d="M147,68.8V23.7a12.1,12.1,0,0,0-12.1-12.1H16A12.1,12.1,0,0,0,4,23.7V68.8a71.5,71.5,0,0,0,143,0"/><path class="cls-4" d="M75.6,100.3a8.9,8.9,0,0,1-6.3-2.6L35.2,63.6A8.9,8.9,0,1,1,47.8,50.9L75.6,78.7l28-28a8.9,8.9,0,1,1,12.6,12.6L81.9,97.7a8.9,8.9,0,0,1-6.3,2.6"/></g></svg>