<svg id="Layer_1" data-name="Layer 1" xmlns="http://www.w3.org/2000/svg" xmlns:xlink="http://www.w3.org/1999/xlink" width="206" height="150" viewBox="0 0 206 150"><defs><style>.cls-1,.cls-4{fill:none;}.cls-2{clip-path:url(#clip-path);}.cls-3{fill:#037eda;}.cls-4{stroke:#037eda;stroke-width:1.72px;}</style><clipPath id="clip-path"><rect class="cls-1" x="4" y="4.9" width="196" height="138.05"/></clipPath></defs><title>portfolio icons</title><g class="cls-2"><path class="cls-3" d="M41.8,111.7A34.4,34.4,0,1,1,76.2,77.3a34.4,34.4,0,0,1-34.4,34.4m0-72.2A37.8,37.8,0,1,0,79.6,77.3,37.8,37.8,0,0,0,41.8,39.5M60.7,75.6H43.5V58.4a1.7,1.7,0,1,0-3.4,0V75.6H22.9a1.7,1.7,0,0,0,0,3.4H40.1V96.2a1.7,1.7,0,0,0,3.4,0V79.1H60.7a1.7,1.7,0,0,0,0-3.4"/><path class="cls-3" d="M186.5,101.7a34.4,34.4,0,1,1,0-48.6,34.4,34.4,0,0,1,0,48.6M135.4,50.6a37.8,37.8,0,1,0,53.5,0,37.8,37.8,0,0,0-53.5,0m38.9,12.2L162.2,74.9,150,62.8a1.7,1.7,0,1,0-2.4,2.4l12.2,12.2L147.6,89.5a1.7,1.7,0,0,0,2.4,2.4l12.2-12.2,12.2,12.2a1.7,1.7,0,1,0,2.4-2.4L164.6,77.3l12.2-12.2a1.7,1.7,0,0,0-2.4-2.4"/><line class="cls-4" x1="79.6" y1="142.6" x2="124.4" y2="5.1"/></g></svg>