<svg id="Layer_1" data-name="Layer 1" xmlns="http://www.w3.org/2000/svg" xmlns:xlink="http://www.w3.org/1999/xlink" viewBox="0 0 300 200"><defs><style>.cls-1{fill:none;}.cls-2{clip-path:url(#clip-path);}.cls-3{fill:#848484;}</style><clipPath id="clip-path"><rect class="cls-1" x="-0.5" width="300" height="200"/></clipPath></defs><title>cwicon</title><rect class="cls-1" x="-0.5" width="300" height="200"/><g class="cls-2"><rect class="cls-3" x="40.74" y="51.69" width="2.52" height="225.72"/><path class="cls-3" d="M45.39-6.79h0l0,0c-.08,0,0,0-.11,0a31.73,31.73,0,0,0-6.18,0h0C29.72-6,10.25,7.21,13.13,32,16.09,57.64,41,81.9,42,81.77c1,.12,25.92-24.12,28.89-49.73C73.71,7.55,54.87-6.21,45.39-6.79Z"/><path class="cls-3" d="M57.87,131.54h9.32v2H60.07v3.24h6.32v2H60.07v3.37h7.22v2H57.87Z"/><path class="cls-3" d="M68.85,131.54H71.3l3.8,9.68,3.78-9.68h2.39L76,144.22H74.09Z"/><path class="cls-3" d="M83.43,131.54h9.32v2H85.63v3.24h6.32v2H85.63v3.37h7.22v2H83.43Z"/><path class="cls-3" d="M95.49,131.54h5.62a6.13,6.13,0,0,1,2.11.33,4.22,4.22,0,0,1,1.53.93,3.65,3.65,0,0,1,.77,1.21,4.09,4.09,0,0,1,.27,1.51v0a4.09,4.09,0,0,1-.22,1.39,3.67,3.67,0,0,1-.62,1.1,3.75,3.75,0,0,1-.95.81,4.68,4.68,0,0,1-1.21.51l3.4,4.77h-2.61l-3.11-4.39H97.68v4.39h-2.2Zm5.45,6.25a2.93,2.93,0,0,0,1.9-.57,1.88,1.88,0,0,0,.7-1.55v0a1.86,1.86,0,0,0-.69-1.56,3.08,3.08,0,0,0-1.93-.53H97.68v4.25Z"/><path class="cls-3" d="M112.21,139.17l-5-7.63h2.61l3.53,5.58,3.56-5.58h2.54l-5,7.58v5h-2.23Z"/><path class="cls-3" d="M127.4,144.35a6.74,6.74,0,0,1-2.66-.51,6.3,6.3,0,0,1-2.07-1.4,6.39,6.39,0,0,1-1.35-2.06,6.52,6.52,0,0,1-.49-2.51v0a6.52,6.52,0,0,1,.49-2.51,6.36,6.36,0,0,1,1.37-2.07,6.57,6.57,0,0,1,4.75-1.94,6.74,6.74,0,0,1,2.66.51,6.33,6.33,0,0,1,2.07,1.39,6.41,6.41,0,0,1,1.35,2.06,6.52,6.52,0,0,1,.49,2.51v0a6.52,6.52,0,0,1-.49,2.51,6.37,6.37,0,0,1-1.37,2.07,6.56,6.56,0,0,1-4.75,1.93Zm0-2a4.12,4.12,0,0,0,1.71-.35,4.06,4.06,0,0,0,1.33-1,4.42,4.42,0,0,0,.87-1.41,4.75,4.75,0,0,0,.31-1.73v0a4.82,4.82,0,0,0-.31-1.74,4.32,4.32,0,0,0-.88-1.42,4.26,4.26,0,0,0-1.35-1,4.32,4.32,0,0,0-3.43,0,4,4,0,0,0-1.33,1,4.42,4.42,0,0,0-.87,1.41,4.73,4.73,0,0,0-.31,1.73v0a4.8,4.8,0,0,0,.31,1.74,4.31,4.31,0,0,0,.88,1.42,4.26,4.26,0,0,0,1.35,1A4.09,4.09,0,0,0,127.44,142.32Z"/><path class="cls-3" d="M136.69,131.54h2l6.74,8.71v-8.71h2.2v12.6h-1.85l-6.93-9v9h-2.2Z"/><path class="cls-3" d="M150.91,131.54h9.32v2h-7.13v3.24h6.32v2h-6.32v3.37h7.22v2h-9.41Z"/><path class="cls-3" d="M162.05,135.69q1.66-.3,1.53-1.69h-.92v-2.47h2.39v2.11a3,3,0,0,1-.7,2.2,3.24,3.24,0,0,1-2.07.79Z"/><path class="cls-3" d="M172.24,144.31a7.94,7.94,0,0,1-2.79-.5A7.61,7.61,0,0,1,167,142.3l1.33-1.58a7.71,7.71,0,0,0,1.85,1.21,5.1,5.1,0,0,0,2.12.42,2.75,2.75,0,0,0,1.63-.43,1.35,1.35,0,0,0,.6-1.15v0a1.46,1.46,0,0,0-.12-.6,1.31,1.31,0,0,0-.43-.5,3.38,3.38,0,0,0-.87-.43,12.26,12.26,0,0,0-1.43-.4,13.85,13.85,0,0,1-1.79-.53,4.84,4.84,0,0,1-1.32-.72,2.77,2.77,0,0,1-.81-1,3.53,3.53,0,0,1-.28-1.48v0a3.39,3.39,0,0,1,1.2-2.64,4.12,4.12,0,0,1,1.35-.75,5.28,5.28,0,0,1,1.73-.27,7.22,7.22,0,0,1,2.49.41,7.4,7.4,0,0,1,2.08,1.18l-1.19,1.67a7.77,7.77,0,0,0-1.71-1,4.65,4.65,0,0,0-1.71-.33,2.36,2.36,0,0,0-1.51.43,1.31,1.31,0,0,0-.54,1.06v0a1.52,1.52,0,0,0,.13.64,1.24,1.24,0,0,0,.46.5,3.94,3.94,0,0,0,.92.42q.59.2,1.49.41a14.25,14.25,0,0,1,1.76.56,4.4,4.4,0,0,1,1.27.75,3,3,0,0,1,.77,1,3.31,3.31,0,0,1,.26,1.36v0a3.67,3.67,0,0,1-.33,1.58,3.39,3.39,0,0,1-.92,1.19,4.06,4.06,0,0,1-1.42.74A6.21,6.21,0,0,1,172.24,144.31Z"/><path class="cls-3" d="M184.86,131.54h2.2v12.6h-2.2Z"/><path class="cls-3" d="M190.44,131.54h2l6.74,8.71v-8.71h2.2v12.6h-1.85l-6.93-9v9h-2.2Z"/><path class="cls-3" d="M203.58,131.54H206l3.8,9.68,3.78-9.68H216l-5.24,12.69h-1.94Z"/><path class="cls-3" d="M218.28,131.54h2.2v12.6h-2.2Z"/><path class="cls-3" d="M227,133.59h-4v-2.05h10.22v2.05h-4v10.55H227Z"/><path class="cls-3" d="M235.53,131.54h9.32v2h-7.13v3.24H244v2h-6.32v3.37h7.22v2h-9.41Z"/><path class="cls-3" d="M247.58,131.54h4.7A7.46,7.46,0,0,1,255,132a6.41,6.41,0,0,1,2.12,1.32,5.9,5.9,0,0,1,1.38,2,6.27,6.27,0,0,1,.49,2.47v0a6.33,6.33,0,0,1-.49,2.48,5.86,5.86,0,0,1-1.38,2,6.51,6.51,0,0,1-2.12,1.33,7.32,7.32,0,0,1-2.71.49h-4.7Zm4.68,10.6a4.91,4.91,0,0,0,1.8-.32,3.93,3.93,0,0,0,1.38-.89,4,4,0,0,0,.88-1.36,4.57,4.57,0,0,0,.31-1.71v0a4.64,4.64,0,0,0-.31-1.72,3.91,3.91,0,0,0-2.26-2.26,4.79,4.79,0,0,0-1.8-.33h-2.48v8.6Z"/><path class="cls-3" d="M207.38,64.72v30c0,3.88-3.53,7-7.88,7s-7.88-3.14-7.88-7v-30h-13s.05,29.63.05,29.74a7.4,7.4,0,0,1-14.79,0V64.72H151l0,24.67A11.83,11.83,0,0,1,139.18,101l-15.61,0h0a11.83,11.83,0,0,1,.31-23.66h16.73V64.77H123a24.65,24.65,0,0,0-24.4,24.61A24.15,24.15,0,0,0,123,113.57h16.52A24.11,24.11,0,0,0,156.35,107a17.9,17.9,0,0,0,29-.81A19.31,19.31,0,0,0,200.92,114c10.67,0,18.46-8.63,18.46-19.27v-30Z"/><path class="cls-3" d="M125.4,85.3v.92h-2.62v6.86H121.7V86.23h-2.62V85.3Z"/><path class="cls-3" d="M126.38,85.3h1.06v3.21h4V85.3h1.06v7.78h-1.06V89.44h-4v3.64h-1.06Z"/><path class="cls-3" d="M134,85.3h5.65v1H135v2.36h4.27v.9H135v2.64h4.7v.92H134Z"/></g></svg>