<?xml version="1.0" encoding="utf-8"?>
<!-- Generator: Adobe Illustrator 21.0.2, SVG Export Plug-In . SVG Version: 6.00 Build 0)  -->
<svg version="1.1" xmlns="http://www.w3.org/2000/svg" xmlns:xlink="http://www.w3.org/1999/xlink" x="0px" y="0px"
	 viewBox="0 0 612 792" style="enable-background:new 0 0 612 792;" xml:space="preserve">
<style type="text/css">
	.st0{fill:#FFFFFF;}
	.st1{fill:#008ACA;}
	.st2{fill:none;}
	.st3{font-family:'Montserrat-Regular';}
	.st4{font-size:11px;}
	.st5{font-size:10px;}
	.st6{font-family:'Montserrat-Light';}
	.st7{font-size:8px;}
	.st8{fill:#A7A9AC;}
	.st9{fill:#9AA5CA;}
	.st10{opacity:0.35;}
	.st11{fill:#00A2E5;}
	.st12{opacity:0.45;}
	.st13{fill:#0083CA;}
	.st14{fill:#FFFFFF;stroke:#F1F2F2;stroke-miterlimit:10;}
	.st15{font-family:'Montserrat-SemiBold';}
	.st16{font-size:72px;}
	.st17{fill:none;stroke:#000000;stroke-miterlimit:10;}
	.st18{fill:#00ACCD;}
	.st19{font-size:56.4696px;}
	.st20{fill:#FFFFFF;stroke:#000000;stroke-miterlimit:10;}
	.st21{fill:#0F145B;}
	.st22{fill:#00AEEF;}
	.st23{fill:#8BC7E3;}
	.st24{fill:#003C77;}
	.st25{clip-path:url(#SVGID_2_);}
	.st26{clip-path:url(#SVGID_4_);}
	.st27{fill:#327ABF;}
	.st28{fill:#3499CC;}
</style>
<g id="Layer_4">
</g>
<g id="Layer_2">
	<g>
		<path class="st1" d="M170.5,357.6c-0.6,0-1.1,0.1-1.6,0.3c-0.2-3-2.8-5.4-5.8-5.4c-0.4,0-0.9,0.1-1.3,0.1c0-0.3,0-0.6,0-0.9
			c0-4.4-3.6-7.9-7.9-7.9s-7.9,3.6-7.9,7.9c0,4.4,3.6,7.9,7.9,7.9c1.2,0,2.3-0.3,3.3-0.7c0.3,2.9,2.8,5.2,5.8,5.2
			c1.2,0,2.4-0.4,3.3-1c0.5,1.8,2.2,3.1,4.1,3.1c2.4,0,4.3-1.9,4.3-4.3C174.9,359.5,172.9,357.6,170.5,357.6z"/>
		<path class="st1" d="M146.1,335.1c0.5,0.1,1,0.1,1.5,0.1c6.7,0,12.1-5.4,12.1-12.1c0-6.4-5-11.7-11.3-12.1
			c-0.3-8.5-7.3-15.3-15.8-15.3c-3.1,0-5.9,0.9-8.4,2.4c-4.3-6.2-11.4-10.2-19.5-10.2c-7.8,0-14.7,3.7-19,9.5
			c-2.6-1.6-5.6-2.5-8.8-2.5c-3.7,0-7.1,1.2-9.9,3.2c-3-4.5-8.1-7.4-13.9-7.4c-7.7,0-14.1,5.2-16.1,12.2c-8,1.2-14.2,8.1-14.2,16.5
			c0,5.6,2.8,10.5,7,13.6c-2.8,3.9-4.5,8.7-4.5,13.8c0,13.1,10.6,23.7,23.7,23.7c9.1,0,17-5.1,21-12.7l10.6-1.5l0.1-0.1
			c3.1,3.3,7.4,5.5,12.3,5.5c1,0,1.9-0.1,2.8-0.3c1.7,6.9,7.9,12.1,15.4,12.1c4.8,0,9.1-2.2,12-5.5c0.8,0.2,1.7,0.3,2.6,0.3
			c6.7,0,12.1-5.4,12.1-12.1c0-2.2-0.6-4.3-1.6-6.1L146.1,335.1z"/>
	</g>
	<circle cx="222.1" cy="399.2" r="16.7"/>
	<circle cx="296.6" cy="428.1" r="12.1"/>
	<circle cx="183.4" cy="419.2" r="16.7"/>
	<circle cx="192.6" cy="442.2" r="7.9"/>
	<circle cx="220.5" cy="455.8" r="16.7"/>
	<circle cx="237.2" cy="458" r="12.1"/>
	<circle cx="192.6" cy="399.2" r="16.7"/>
	<rect x="220.3" y="417.8" width="47.4" height="32.2"/>
	<circle cx="302.3" cy="460.5" r="7.9"/>
	<circle cx="311.4" cy="467.1" r="5.9"/>
	<circle cx="318.9" cy="470.6" r="4.3"/>
	<circle cx="251.2" cy="399.2" r="23.7"/>
	<circle cx="196.2" cy="445" r="23.7"/>
	<polygon points="212.4,407.1 188.1,418.3 197.4,445.7 204.8,453.9 224.6,451 240.4,428.9 240.9,413.5 	"/>
	<circle cx="276.7" cy="405.4" r="15.9"/>
	<polygon points="293.5,432.8 279.5,454.3 258.1,457.4 247.9,447.9 250.9,425 262.9,413.4 275,409.4 	"/>
	<rect x="445.4" y="139.7" class="st2" width="120.9" height="40.7"/>
	<text transform="matrix(1 0 0 1 445.4356 147.8372)"><tspan x="0" y="0" class="st3 st4">Dikssha Dinesh</tspan><tspan x="0" y="12" class="st3 st5">Graphic Designer</tspan></text>
	<rect x="449.4" y="241.3" class="st2" width="113.1" height="32"/>
	<text transform="matrix(1 0 0 1 487.4138 247.2345)"><tspan x="0" y="0" class="st6 st7">diksshadinesh.com</tspan><tspan x="-30.3" y="9.6" class="st6 st7">diksshadinesh@gmail.com</tspan><tspan x="23" y="19.2" class="st6 st7">404 663 3580</tspan></text>
	<circle cx="260.8" cy="446.8" r="23.7"/>
	<circle cx="289.9" cy="414.6" r="12.1"/>
	<g>
		<path d="M415.9,432.8v50.4h-20.4c-15.3,0-26.3-10.7-26.3-25.2c0-14.6,10.9-25.2,26.1-25.2H415.9z"/>
		<path d="M445.6,432.8c15.1,0,26.1,10.6,26.1,25.2c0,14.5-11,25.2-26.3,25.2h-20.4v-50.4H445.6z"/>
	</g>
</g>
<g id="Layer_1">
	<circle class="st0" cx="306.3" cy="213.1" r="5.6"/>
	<rect x="39.6" y="306.7" class="st2" width="122.5" height="63"/>
	<text transform="matrix(1 0 0 1 39.6382 360.0958)" class="st0 st15 st16">DD</text>
	<rect x="432.6" y="31.7" class="st17" width="144" height="252"/>
	<rect x="187.7" y="403.9" class="st2" width="122.5" height="63"/>
	<text transform="matrix(1 0 0 1 187.7005 457.2894)" class="st0 st3 st16">DD</text>
	<g>
		<g>
			<g>
				<path class="st18" d="M562.9,102.9c-0.4,0-0.9,0.1-1.3,0.2c-0.2-2.4-2.2-4.2-4.6-4.2c-0.3,0-0.7,0-1,0.1c0-0.2,0-0.5,0-0.7
					c0-3.4-2.8-6.2-6.2-6.2c-3.4,0-6.2,2.8-6.2,6.2c0,3.4,2.8,6.2,6.2,6.2c0.9,0,1.8-0.2,2.6-0.6c0.2,2.3,2.2,4.1,4.6,4.1
					c1,0,1.9-0.3,2.6-0.8c0.4,1.4,1.7,2.4,3.2,2.4c1.9,0,3.4-1.5,3.4-3.4C566.3,104.4,564.8,102.9,562.9,102.9z"/>
				<path class="st18" d="M543.8,85.2c0.4,0,0.8,0.1,1.2,0.1c5.3,0,9.5-4.3,9.5-9.5c0-5-3.9-9.2-8.9-9.5c-0.2-6.7-5.7-12-12.4-12
					c-2.4,0-4.6,0.7-6.6,1.9c-3.4-4.8-8.9-8-15.3-8c-6.1,0-11.5,2.9-14.9,7.5c-2-1.3-4.4-2-6.9-2c-2.9,0-5.6,0.9-7.7,2.5
					c-2.4-3.5-6.3-5.8-10.9-5.8c-6,0-11.1,4.1-12.6,9.6c-6.3,0.9-11.1,6.4-11.1,12.9c0,4.4,2.2,8.3,5.5,10.6
					c-2.2,3.1-3.5,6.8-3.5,10.9c0,10.3,8.3,18.6,18.6,18.6c7.1,0,13.3-4,16.4-9.9l8.3-1.2l0-0.1c2.4,2.6,5.8,4.3,9.7,4.3
					c0.8,0,1.5-0.1,2.2-0.2c1.3,5.5,6.2,9.5,12.1,9.5c3.8,0,7.2-1.7,9.4-4.3c0.7,0.1,1.3,0.2,2,0.2c5.3,0,9.5-4.3,9.5-9.5
					c0-1.7-0.5-3.4-1.3-4.8L543.8,85.2z"/>
			</g>
		</g>
		<rect x="460.3" y="62.9" class="st2" width="96.1" height="49.4"/>
		<text transform="matrix(1 0 0 1 460.2773 104.8428)" class="st0 st15 st19">DD</text>
	</g>
	<rect x="262.4" y="139.7" class="st2" width="120.9" height="40.7"/>
	<text transform="matrix(1 0 0 1 262.4356 147.8372)"><tspan x="0" y="0" class="st3 st4">Dikssha Dinesh</tspan><tspan x="0" y="12" class="st3 st5">Graphic Designer</tspan></text>
	<rect x="266.4" y="241.3" class="st2" width="113.1" height="32"/>
	<text transform="matrix(1 0 0 1 304.4138 247.2345)"><tspan x="0" y="0" class="st6 st7">diksshadinesh.com</tspan><tspan x="-30.3" y="9.6" class="st6 st7">diksshadinesh@gmail.com</tspan><tspan x="23" y="19.2" class="st6 st7">404 663 3580</tspan></text>
	<rect x="249.6" y="31.7" class="st18" width="144" height="252"/>
	<g>
		<g>
			<path class="st0" d="M379.9,102.9c-0.4,0-0.9,0.1-1.3,0.2c-0.2-2.4-2.2-4.2-4.6-4.2c-0.3,0-0.7,0-1,0.1c0-0.2,0-0.5,0-0.7
				c0-3.4-2.8-6.2-6.2-6.2c-3.4,0-6.2,2.8-6.2,6.2c0,3.4,2.8,6.2,6.2,6.2c0.9,0,1.8-0.2,2.6-0.6c0.2,2.3,2.2,4.1,4.6,4.1
				c1,0,1.9-0.3,2.6-0.8c0.4,1.4,1.7,2.4,3.2,2.4c1.9,0,3.4-1.5,3.4-3.4C383.3,104.4,381.8,102.9,379.9,102.9z"/>
			<path class="st0" d="M360.8,85.2c0.4,0,0.8,0.1,1.2,0.1c5.3,0,9.5-4.3,9.5-9.5c0-5-3.9-9.2-8.9-9.5c-0.2-6.7-5.7-12-12.4-12
				c-2.4,0-4.6,0.7-6.6,1.9c-3.4-4.8-8.9-8-15.3-8c-6.1,0-11.5,2.9-14.9,7.5c-2-1.3-4.4-2-6.9-2c-2.9,0-5.6,0.9-7.7,2.5
				c-2.4-3.5-6.3-5.8-10.9-5.8c-6,0-11.1,4.1-12.6,9.6c-6.3,0.9-11.1,6.4-11.1,12.9c0,4.4,2.2,8.3,5.5,10.6
				c-2.2,3.1-3.5,6.8-3.5,10.9c0,10.3,8.3,18.6,18.6,18.6c7.1,0,13.3-4,16.4-9.9l8.3-1.2l0-0.1c2.4,2.6,5.8,4.3,9.7,4.3
				c0.8,0,1.5-0.1,2.2-0.2c1.3,5.5,6.2,9.5,12.1,9.5c3.8,0,7.2-1.7,9.4-4.3c0.7,0.1,1.3,0.2,2,0.2c5.3,0,9.5-4.3,9.5-9.5
				c0-1.7-0.5-3.4-1.3-4.8L360.8,85.2z"/>
		</g>
		<g>
			<rect x="277.3" y="62.9" class="st2" width="96.1" height="49.4"/>
			<text transform="matrix(1 0 0 1 277.2773 104.8428)" class="st18 st15 st19">DD</text>
		</g>
	</g>
	<rect x="266.4" y="140.7" class="st2" width="120.9" height="40.7"/>
	<text transform="matrix(1 0 0 1 266.416 148.8265)"><tspan x="0" y="0" class="st0 st3 st4">Dikssha Dinesh</tspan><tspan x="0" y="12" class="st0 st3 st5">Graphic Designer</tspan></text>
	<rect x="270.4" y="242.3" class="st2" width="113.1" height="32"/>
	<text transform="matrix(1 0 0 1 308.3942 248.2238)"><tspan x="0" y="0" class="st0 st6 st7">diksshadinesh.com</tspan><tspan x="-30.3" y="9.6" class="st0 st6 st7">diksshadinesh@gmail.com</tspan><tspan x="23" y="19.2" class="st0 st6 st7">404 663 3580</tspan></text>
	<circle class="st0" cx="439.5" cy="469.6" r="9.3"/>
	<circle class="st0" cx="416.3" cy="450.6" r="9.3"/>
	<circle class="st0" cx="415.9" cy="470.2" r="9.3"/>
	<circle class="st20" cx="368.2" cy="545.2" r="6.7"/>
	<circle class="st0" cx="389.9" cy="446.9" r="9.3"/>
	<circle class="st20" cx="404.4" cy="546.6" r="4.4"/>
	<circle class="st20" cx="409.5" cy="550.2" r="3.3"/>
	<circle class="st20" cx="413.6" cy="552.2" r="2.4"/>
	<circle class="st20" cx="298.2" cy="526.9" r="13.2"/>
	<circle class="st0" cx="451.7" cy="464.4" r="8.8"/>
	<circle class="st0" cx="402.6" cy="465.4" r="9.3"/>
	<circle class="st0" cx="401.8" cy="447.7" r="9.3"/>
	<circle class="st0" cx="425.2" cy="468" r="8.8"/>
	<circle class="st0" cx="443.5" cy="446.3" r="9.3"/>
	<circle class="st0" cx="386" cy="458" r="9.3"/>
	<circle class="st0" cx="389.9" cy="467.3" r="9.3"/>
	<circle class="st0" cx="430.2" cy="449.6" r="9.3"/>
	<circle class="st0" cx="453.3" cy="453.3" r="9.3"/>
	<rect x="391.3" y="451" class="st0" width="59" height="15.5"/>
	<circle cx="461.9" cy="478.9" r="5.2"/>
	<circle cx="467.1" cy="483.2" r="3.7"/>
	<circle cx="471.7" cy="485.8" r="2.6"/>
</g>
<g id="Layer_3">
</g>
</svg>
