<svg xmlns="http://www.w3.org/2000/svg" width="10.7" height="7.9" viewBox="0 0 10.7 7.9"><defs><style>.cls-1{fill:#003c77;}.cls-2{fill:#0083ca;}</style></defs><title>logo</title><g id="Layer_1" data-name="Layer 1"><path class="cls-1" d="M.6,7.6V.5H3.5A3.5,3.5,0,0,1,7.2,4.1,3.5,3.5,0,0,1,3.5,7.6ZM1.8,6.5H3.5A2.4,2.4,0,0,0,6,4,2.4,2.4,0,0,0,3.5,1.6H1.8Z"/><path class="cls-2" d="M6.5.5a3.5,3.5,0,0,1,3.7,3.5A3.5,3.5,0,0,1,6.5,7.6H3.6V.5Zm-1.7,6H6.5A2.4,2.4,0,0,0,9,4.1,2.4,2.4,0,0,0,6.5,1.6H4.8Z"/><path class="cls-1" d="M5.7,5.2A2.4,2.4,0,0,1,3.5,6.5H2.7V7.6h.8A3.5,3.5,0,0,0,7,5.2Z"/></g></svg>