<?xml version="1.0" encoding="utf-8"?>
<!-- Generator: Adobe Illustrator 21.0.2, SVG Export Plug-In . SVG Version: 6.00 Build 0)  -->
<svg version="1.1" id="Layer_1" xmlns="http://www.w3.org/2000/svg" xmlns:xlink="http://www.w3.org/1999/xlink" x="0px" y="0px"
	 viewBox="0 0 10.7 7.9" style="enable-background:new 0 0 10.7 7.9;" xml:space="preserve">
<style type="text/css">
	.st0{fill:#003C77;}
	.st1{fill:#3499CC;}
</style>
<g id="Layer_4">
</g>
<g id="Layer_2">
</g>
<g id="Layer_1_1_">
	<g>
		<path class="st0" d="M0.6,7.6V0.5h2.9C5.6,0.5,7.2,2,7.2,4c0,2.1-1.5,3.5-3.7,3.5L0.6,7.6L0.6,7.6z M1.8,6.5h1.7
			C4.9,6.5,6,5.5,6,4c0-1.4-1.1-2.5-2.4-2.5H1.8V6.5z"/>
		<path class="st1" d="M6.5,0.5c2.1,0,3.7,1.5,3.7,3.5S8.7,7.5,6.5,7.5H3.6v-7H6.5z M4.8,6.5h1.7c1.4,0,2.4-1,2.4-2.5
			c0-1.4-1.1-2.5-2.5-2.5H4.8V6.5z"/>
		<path class="st0" d="M5.7,5.2C5.3,6,4.5,6.5,3.5,6.5H2.7l0,1h0.8c1.7,0,3-0.8,3.5-2.3H5.7z"/>
	</g>
</g>
<g id="Layer_3">
</g>
</svg>
