<svg id="Layer_1" data-name="Layer 1" xmlns="http://www.w3.org/2000/svg" xmlns:xlink="http://www.w3.org/1999/xlink" viewBox="0 0 300 200"><defs><style>.cls-1{fill:none;}.cls-2{clip-path:url(#clip-path);}.cls-3{fill:#848484;}</style><clipPath id="clip-path"><rect class="cls-1" width="300" height="200"/></clipPath></defs><title>lust</title><g class="cls-2"><path class="cls-3" d="M147.8,60.92c13.28,18.52,21.13,26,32.6,26v1.41H96.08V86.88c20.73,0,6.84-20.73-4.63-36.43L74.95,27.71C57,49.85,45.56,86.88,75.35,86.88v1.41h-70V86.88c29,0,49.91-37,68.43-60.78L38.12-23.61C22.22-45.75,16.38-51.18,3.5-51.18v-1.41H92.66v1.41C78-51.18,78-39.31,85.41-28L103.73-.26c14.69-18.92,34.42-50.92,9.46-50.92v-1.41h59v1.41c-25.56,0-50.31,30.19-67,52.33Z"/><path class="cls-3" d="M321.68,17.85c0,40.65-26.57,71.85-67.62,71.85s-67.62-31.2-67.62-71.85S213-54,254.06-54,321.68-22.8,321.68,17.85Zm-45.69,0c0-48.3-6.64-70.24-21.94-70.24s-21.94,21.94-21.94,70.24,6.64,70.24,21.94,70.24S276,66.15,276,17.85Z"/><path class="cls-3" d="M82.8,180.52,39.32,99.82H25.24l.2-1.41H112l-.2,1.41H90l24.55,47.5,45.69-47.5H131.7l.2-1.41h57.16l-.2,1.41H162.5L115.4,148.92l45.89,89H175l-.2,1.41H92.86l.2-1.41h20.73l-30.19-56-53.74,56H59.45l-.2,1.41H5.11l.2-1.41H27.65Z"/><path class="cls-3" d="M321.08,156.77c0,44.48-38.64,83.93-86.94,83.93-34.21,0-64-21.54-64-59.37,0-46.09,38.64-84.33,86.74-84.33C293.91,97,321.08,120.55,321.08,156.77Zm-41.86-22.94c0-18.52-4.63-35.22-22.54-35.22-36.43,0-44.68,79.3-44.68,105.66,0,18.31,4.43,34.82,22.34,34.82C268.55,239.09,279.22,168,279.22,133.83Z"/></g></svg>