<svg id="Layer_1" data-name="Layer 1" xmlns="http://www.w3.org/2000/svg" viewBox="0 0 300 200"><defs><style>.cls-1{fill:#848484;}.cls-2{fill:#fff;}</style></defs><title>lust</title><path class="cls-1" d="M196.57,17.5C176.63,17.5,159.26,29.39,150,47c-9.25-17.65-26.65-29.54-46.57-29.54-29.64,0-53.67,26.28-53.67,58.7C49.77,129,150,182.5,150,182.5S250.23,129,250.23,76.2c0-32.43-24-58.7-53.67-58.7"/><path class="cls-2" d="M165.48,81c-1.69-5.74-3.63-11-3.63-11s.64,2.51-2.84,8.25c-4.83,8-4.53,7.24-31.8,45.89l7,9.77L164.42,89.2s2.76-2.43,1.05-8.16"/><polygon class="cls-2" points="153.68 110.87 165.92 134.75 172.79 124.66 160.42 100.98 153.68 110.87"/><path class="cls-2" d="M142.83,70.32l.29-.91a2.34,2.34,0,0,0-.29.91"/><path class="cls-2" d="M143.54,97.15l6-10.18-4.94-11s-2-3.41-1.75-5.63l-3.67,11.49a8,8,0,0,0,.57,6.34,85.45,85.45,0,0,1,3.81,9"/><path class="cls-2" d="M159.34,75.39s3.11-4.4,1.58-7.47c0,0-6.85-5.45-16.25-.77,0,0-3,1.77.81,8.24,0,0,9.19-2.43,13.87,0"/></svg>