<svg id="Layer_1" data-name="Layer 1" xmlns="http://www.w3.org/2000/svg" xmlns:xlink="http://www.w3.org/1999/xlink" viewBox="0 0 300 200"><defs><style>.cls-1{fill:none;}.cls-2{clip-path:url(#clip-path);}.cls-3{fill:#848484;}</style><clipPath id="clip-path"><rect class="cls-1" x="-0.5" width="301" height="200"/></clipPath></defs><title>lust</title><g class="cls-2"><path class="cls-3" d="M130.43,187.56A85.86,85.86,0,1,1,213.1,78.62h0a85.88,85.88,0,0,1-82.67,108.93ZM130.37,20A81.65,81.65,0,1,0,209,79.75h0A81.79,81.79,0,0,0,130.37,20Z"/><path class="cls-3" d="M130.22,52.19h0A49.92,49.92,0,1,1,116.79,54a50,50,0,0,1,13.43-1.85m0-4.22A54.1,54.1,0,1,0,182.3,87.55,54.15,54.15,0,0,0,130.22,48Z"/><path class="cls-3" d="M56.9,116.43l-.27-2.58,10.08-9.64-11,1.15-.29-2.76,15.87-1.67.24,2.33-10.37,9.92L72.48,112l.29,2.76Z"/><path class="cls-3" d="M55.84,95.19l1.92-11.65,2.5.41-1.47,8.91,4,.66,1.3-7.89,2.5.41-1.3,7.9,4.21.69,1.49-9,2.49.41L71.59,97.78Z"/><path class="cls-3" d="M58.92,77.28l1.42-2.68,12.23,2.18-8.65-9L65,65.66l12.33,2.1-8.66-8.91,1.38-2.6L81.66,68.71l-1.13,2.13-12-1.91,8.29,8.84L75.72,79.9Z"/><path class="cls-3" d="M90.51,50.45l-10.86-4,2.65-2,7.8,3-.6-8.36,2.58-1.92.65,11.48,3.8,5.1-2.27,1.69Z"/><path class="cls-3" d="M110.19,46.95a8.56,8.56,0,0,1-3.39.56,7.94,7.94,0,0,1-5.58-2.61,8.27,8.27,0,0,1-1.68-2.77v0a8.26,8.26,0,0,1-.52-3.2,8,8,0,0,1,.72-3.06,8.25,8.25,0,0,1,1.86-2.59,8.39,8.39,0,0,1,2.94-1.79,8.53,8.53,0,0,1,3.39-.56,8,8,0,0,1,3.07.76,8.09,8.09,0,0,1,2.51,1.86,8.23,8.23,0,0,1,1.68,2.77l0,0a8.28,8.28,0,0,1,.52,3.2,8,8,0,0,1-.72,3.06,8.32,8.32,0,0,1-1.86,2.59A8.43,8.43,0,0,1,110.19,46.95Zm-.85-2.43a5.23,5.23,0,0,0,1.88-1.17,5.15,5.15,0,0,0,1.17-1.72,5.56,5.56,0,0,0,.41-2.06,6,6,0,0,0-.38-2.19l0,0a6.1,6.1,0,0,0-1.13-1.93,5.45,5.45,0,0,0-1.67-1.3,5.35,5.35,0,0,0-2-.55,5.2,5.2,0,0,0-2.2.33A5.26,5.26,0,0,0,103.5,35a5.17,5.17,0,0,0-1.17,1.72,5.57,5.57,0,0,0-.41,2.06A6,6,0,0,0,102.3,41l0,0A6.11,6.11,0,0,0,103.44,43a5.47,5.47,0,0,0,1.67,1.3,5.35,5.35,0,0,0,2,.55A5.18,5.18,0,0,0,109.34,44.51Z"/><path class="cls-3" d="M119.23,27.68l7.1-.49a7.78,7.78,0,0,1,2.69.24,5.37,5.37,0,0,1,2,1,4.62,4.62,0,0,1,1.08,1.46,5.18,5.18,0,0,1,.47,1.89v0a5.15,5.15,0,0,1-.16,1.78,4.58,4.58,0,0,1-.69,1.44,4.66,4.66,0,0,1-1.12,1.11,6,6,0,0,1-1.49.76l4.71,5.73-3.3.23-4.3-5.28h0l-3.47.24.38,5.55-2.77.19Zm7.42,7.42a3.71,3.71,0,0,0,2.35-.88,2.39,2.39,0,0,0,.76-2v0a2.36,2.36,0,0,0-1-1.91,3.94,3.94,0,0,0-2.49-.51l-4.08.28.37,5.37Z"/><path class="cls-3" d="M138.93,27.29l2.73.55-1.57,7.87,9-6.39,3.37.67-7.85,5.43,5,10.27L146.32,45l-3.94-8.11-2.94,2-.9,4.54-2.73-.55Z"/><path class="cls-3" d="M163,53.2a8.13,8.13,0,0,1-2.38-2.29,7.94,7.94,0,0,1-1.25-6,8.34,8.34,0,0,1,1.22-3l0,0a8.39,8.39,0,0,1,2.24-2.36,8,8,0,0,1,6-1.37A8.34,8.34,0,0,1,172,39.38a10,10,0,0,1,1.58,1.23,8.06,8.06,0,0,1,1.11,1.33,7.61,7.61,0,0,1,.74,1.41,11,11,0,0,1,.48,1.5l-2.64.77a9.1,9.1,0,0,0-.93-2.31,5.28,5.28,0,0,0-1.76-1.78,5,5,0,0,0-2-.76,5.19,5.19,0,0,0-2.06.11,5.42,5.42,0,0,0-1.89.91,6.18,6.18,0,0,0-1.51,1.63l0,0a6.21,6.21,0,0,0-.86,2.06,5.52,5.52,0,0,0-.06,2.12,5.14,5.14,0,0,0,.75,1.93,5,5,0,0,0,1.53,1.51,5.25,5.25,0,0,0,2.41.89,9.82,9.82,0,0,0,2.56-.15l.53,2.5a10.15,10.15,0,0,1-1.72.29,8.55,8.55,0,0,1-1.7,0,7.46,7.46,0,0,1-1.74-.44A10,10,0,0,1,163,53.2Z"/><path class="cls-3" d="M181.14,46.87l2,1.92-11,11.53-2-1.92Z"/><path class="cls-3" d="M187.87,58.12l-3-4.09L187,52.5,194.63,63l-2.1,1.53-3-4.09-10.79,7.88L177.09,66Z"/><path class="cls-3" d="M190.28,76.21l6.61-9.48,1.23,3.07-4.9,6.77,8.24,1.56,1.2,3L191.4,78.81l-5.9,2.36-1.05-2.62Z"/><path class="cls-3" d="M116.26,164.6l-3,.16-.09-2.35,4.48-.42,1.91.42-3.45,15.69-2.71-.6Z"/><path class="cls-3" d="M128.31,179.65a6.27,6.27,0,0,1-2.83-.71,6.54,6.54,0,0,1-2.14-1.82,8,8,0,0,1-1.33-2.64,10.24,10.24,0,0,1-.4-3.21v0a10.1,10.1,0,0,1,.59-3.2,8.14,8.14,0,0,1,1.48-2.58,6.71,6.71,0,0,1,2.25-1.71,6.65,6.65,0,0,1,5.71.15,6.48,6.48,0,0,1,2.13,1.81,8.34,8.34,0,0,1,1.33,2.64,10,10,0,0,1,.41,3.22v0a10,10,0,0,1-.59,3.2,8.11,8.11,0,0,1-1.48,2.58,6.68,6.68,0,0,1-2.25,1.7A6.26,6.26,0,0,1,128.31,179.65Zm.12-2.53a3.2,3.2,0,0,0,1.69-.4,4.06,4.06,0,0,0,1.3-1.17,5.89,5.89,0,0,0,.86-1.78,8.31,8.31,0,0,0,.34-2.21v0a8,8,0,0,0-.23-2.23,6.33,6.33,0,0,0-.77-1.83,4.08,4.08,0,0,0-1.25-1.26,3.23,3.23,0,0,0-1.66-.5,3.18,3.18,0,0,0-1.69.4,4.06,4.06,0,0,0-1.3,1.17,6,6,0,0,0-.86,1.78,8.35,8.35,0,0,0-.35,2.21v0a8.4,8.4,0,0,0,.22,2.23,5.92,5.92,0,0,0,.77,1.83,4.23,4.23,0,0,0,1.25,1.27A3.19,3.19,0,0,0,128.42,177.12Z"/><path class="cls-3" d="M147.12,177.86a6.29,6.29,0,0,1-2.92,0,6.63,6.63,0,0,1-2.52-1.24,8.05,8.05,0,0,1-1.93-2.25,10.23,10.23,0,0,1-1.17-3v0a10.08,10.08,0,0,1-.2-3.25,8.15,8.15,0,0,1,.82-2.86A6.66,6.66,0,0,1,141,163a6.62,6.62,0,0,1,5.57-1.24A6.49,6.49,0,0,1,149,163a8.35,8.35,0,0,1,1.93,2.25,10.06,10.06,0,0,1,1.18,3v0a10.09,10.09,0,0,1,.2,3.25,8.23,8.23,0,0,1-.82,2.86,6.73,6.73,0,0,1-1.77,2.2A6.27,6.27,0,0,1,147.12,177.86Zm-.5-2.48a3.25,3.25,0,0,0,1.54-.79,4.09,4.09,0,0,0,1-1.45,5.9,5.9,0,0,0,.4-1.93,8.31,8.31,0,0,0-.2-2.23v0a8,8,0,0,0-.77-2.1,6.29,6.29,0,0,0-1.19-1.59,4.05,4.05,0,0,0-1.52-.93,3.35,3.35,0,0,0-3.27.71,4.06,4.06,0,0,0-1,1.45,5.87,5.87,0,0,0-.4,1.93,8.24,8.24,0,0,0,.2,2.23v0a8.25,8.25,0,0,0,.76,2.11,5.88,5.88,0,0,0,1.19,1.59,4.24,4.24,0,0,0,1.52.92A3.18,3.18,0,0,0,146.62,175.38Z"/><path class="cls-3" d="M164.87,171.66a6.33,6.33,0,0,1-2.84.68,6.62,6.62,0,0,1-2.74-.61,8,8,0,0,1-2.41-1.72,10.21,10.21,0,0,1-1.85-2.66l0,0a10.1,10.1,0,0,1-1-3.11,8.16,8.16,0,0,1,.11-3,6.76,6.76,0,0,1,1.19-2.56,6.65,6.65,0,0,1,5.12-2.53,6.46,6.46,0,0,1,2.73.61,8.37,8.37,0,0,1,2.41,1.72,9.92,9.92,0,0,1,1.86,2.65l0,0a10,10,0,0,1,1,3.1,8.17,8.17,0,0,1-.11,3,6.73,6.73,0,0,1-1.19,2.56A6.31,6.31,0,0,1,164.87,171.66Zm-1.07-2.29a3.19,3.19,0,0,0,1.31-1.14,4.09,4.09,0,0,0,.6-1.64,6,6,0,0,0-.07-2,8.43,8.43,0,0,0-.72-2.12l0,0a8.17,8.17,0,0,0-1.25-1.86,6.33,6.33,0,0,0-1.54-1.26,4,4,0,0,0-1.7-.54,3.34,3.34,0,0,0-3,1.47,4.07,4.07,0,0,0-.6,1.64,5.9,5.9,0,0,0,.07,2,8.3,8.3,0,0,0,.72,2.12l0,0a8.53,8.53,0,0,0,1.23,1.87,6,6,0,0,0,1.54,1.26,4.2,4.2,0,0,0,1.7.54A3.24,3.24,0,0,0,163.8,169.37Z"/><path class="cls-3" d="M179.5,162.32a7.07,7.07,0,0,1-2.55,1.42,9.78,9.78,0,0,1-2.59.37l-.18-2.62a7,7,0,0,0,2.09-.25,4.75,4.75,0,0,0,1.68-.91,3.34,3.34,0,0,0,1-1.29,3.46,3.46,0,0,0,.25-1.56,5.22,5.22,0,0,0-.43-1.72,8.48,8.48,0,0,0-1-1.76,4.74,4.74,0,0,1-.4,1.9,4.81,4.81,0,0,1-1.41,1.78,7.1,7.1,0,0,1-2,1.2,5.07,5.07,0,0,1-2,.35,4.61,4.61,0,0,1-1.9-.5,5.16,5.16,0,0,1-1.65-1.35l0,0a5.46,5.46,0,0,1-1-2,5.16,5.16,0,0,1-.18-2.13,5.69,5.69,0,0,1,.71-2.09,6.63,6.63,0,0,1,1.59-1.86A6.77,6.77,0,0,1,171.6,148a5.64,5.64,0,0,1,2.26-.22,6.3,6.3,0,0,1,2.56.88,11.22,11.22,0,0,1,2.81,2.58l0,0a12.48,12.48,0,0,1,1.88,3,8.21,8.21,0,0,1,.71,3,6.17,6.17,0,0,1-.53,2.74A6.33,6.33,0,0,1,179.5,162.32Zm-4.79-6.72a3.89,3.89,0,0,0,.91-1,3.08,3.08,0,0,0,.39-1.14,2.67,2.67,0,0,0-.09-1.11,2.75,2.75,0,0,0-.54-1l0,0a2.76,2.76,0,0,0-2-1,3.43,3.43,0,0,0-2.41.9,3.65,3.65,0,0,0-.89,1,2.88,2.88,0,0,0-.36,1.12,2.83,2.83,0,0,0,.12,1.13,3.1,3.1,0,0,0,.57,1l0,0a2.65,2.65,0,0,0,2,1A3.44,3.44,0,0,0,174.71,155.6Z"/><path class="cls-3" d="M49.53,124.59c-.08-.3-.14-.59-.22-.89l-28.83,8,1,3.53,28.88-8.06C50.06,126.35,49.78,125.48,49.53,124.59Z"/><path class="cls-3" d="M107.69,21.42c.59-.17,1.19-.3,1.78-.45l-7.8-28L98.13-6l7.8,28C106.52,21.78,107.1,21.58,107.69,21.42Z"/><path class="cls-3" d="M152.7,182.75c-.59.17-1.18.3-1.78.45l7.8,28,3.53-1-7.8-28C153.87,182.39,153.29,182.58,152.7,182.75Z"/><path class="cls-3" d="M210.59,78.7c.09.29.19.58.27.88.25.89.45,1.78.67,2.67l28.88-8.06-1-3.53Z"/><path class="cls-3" d="M117.44,49.53c-.59.14-1.19.28-1.78.45s-1.17.35-1.75.54l14.28,51.18-50.32,14c.08.3.14.59.22.89q.37,1.33.81,2.63l50.27-14L143,154.64c.59-.14,1.19-.28,1.78-.45s1.17-.35,1.75-.54L132.7,104.24l50.27-14q-.3-1.33-.67-2.67c-.08-.3-.18-.58-.27-.88l-50.31,14Z"/><path class="cls-3" d="M117.44,49.53c-.59.14-1.19.28-1.78.45s-1.17.35-1.75.54l14.28,51.18-50.32,14c.08.3.14.59.22.89q.37,1.33.81,2.63l50.27-14L143,154.64c.59-.14,1.19-.28,1.78-.45s1.17-.35,1.75-.54L132.7,104.24l50.27-14q-.3-1.33-.67-2.67c-.08-.3-.18-.58-.27-.88l-50.32,14L117.44,49.53Z"/></g></svg>