<svg id="Layer_1" data-name="Layer 1" xmlns="http://www.w3.org/2000/svg" viewBox="0 0 300 200"><defs><style>.cls-1{fill:#848484;}</style></defs><title>lust</title><g id="Rocket"><path class="cls-1" d="M196.27,42.69c-.46-.46-1.6-.69-3.24-.69-8.57,0-31,6.25-42.94,18.23-2.82,2.82-12.18,11.44-14.35,14.35-7,1.92-17.26,5.78-23,11.48,0,0,7,0,15.46,5.44-1.23,5,.33,10.35,4.64,14.65a16,16,0,0,0,11.29,5,14.08,14.08,0,0,0,3.37-.41c5.41,8.49,5.44,15.46,5.44,15.46,5.71-5.7,9.55-15.93,11.48-23,2.92-2.17,11.53-11.53,14.35-14.35C193.06,74.66,199.14,45.56,196.27,42.69Zm-35.74,59.52a68.35,68.35,0,0,1-5.6,14.36,42.06,42.06,0,0,0-4-8,4.06,4.06,0,0,0-4.39-1.76,10.07,10.07,0,0,1-2.4.29,11.93,11.93,0,0,1-8.42-3.86c-3.22-3.22-4.48-7.06-3.56-10.82a4.06,4.06,0,0,0-1.76-4.39,42,42,0,0,0-8-4,68.31,68.31,0,0,1,14.36-5.6,3.2,3.2,0,0,0,.3-.14l23.55,23.55C160.63,102,160.56,102.1,160.53,102.21Zm15.4-16.15c-.8.8-2.07,2.12-3.53,3.66-2.61,2.74-6.64,6.94-9,9.14l-23.2-23.2c2.2-2.39,6.41-6.41,9.14-9,1.53-1.47,2.86-2.73,3.66-3.54,11-11,32.09-17,40-17C192.93,52.64,187.39,74.59,175.92,86.06Zm-52.47,5.8L107.72,131.3l39.44-15.73a18.31,18.31,0,0,1-2.1.12C133,115.69,122.07,104,123.45,91.86ZM115,124l7.34-18.39A27.17,27.17,0,0,0,126,110.8a27.65,27.65,0,0,0,7.4,5.9Zm47.5-33.32a2,2,0,1,0-2-2A2,2,0,0,0,162.49,90.71Zm-6.09-6.09a2,2,0,1,0-2-2A2,2,0,0,0,156.4,84.62Zm-6.09-10.15a2,2,0,1,0,2,2A2,2,0,0,0,150.31,74.47Zm24.35-4.06a6.09,6.09,0,1,0-6.09-6.09A6.09,6.09,0,0,0,174.67,70.41Zm0-8.12a2,2,0,1,1-2,2A2,2,0,0,1,174.67,62.3Z"/></g><g id="Laptop"><path class="cls-1" d="M260.63,173.31l.08-.05L240.82,143.4a10.05,10.05,0,0,0,.46-2.83V29a10.14,10.14,0,0,0-10.14-10.14H68.86A10.14,10.14,0,0,0,58.72,29V140.57a9.73,9.73,0,0,0,.47,2.83l-19.9,29.85.08.05a4.93,4.93,0,0,0-.93,2.76,5.07,5.07,0,0,0,5.07,5.07h213a5.07,5.07,0,0,0,5.07-5.07A4.93,4.93,0,0,0,260.63,173.31ZM68.86,29H231.14V140.57H68.86ZM53,171l13.76-20.64a8.82,8.82,0,0,0,2.12.35H231.14a8.9,8.9,0,0,0,2.12-.35L247,171Z"/></g></svg>